<?xml version="1.0" encoding="UTF-8" standalone="no"?>
<!-- Created with Inkscape (http://www.inkscape.org/) -->

<svg
   width="1190mm"
   height="135mm"
   viewBox="0 0 1190 135"
   version="1.1"
   id="svg1"
   xml:space="preserve"
   inkscape:version="1.4.3 (0d15f75042, 2025-12-25)"
   sodipodi:docname="banner.svg"
   inkscape:export-filename="banner.png"
   inkscape:export-xdpi="96"
   inkscape:export-ydpi="96"
   xmlns:inkscape="http://www.inkscape.org/namespaces/inkscape"
   xmlns:sodipodi="http://sodipodi.sourceforge.net/DTD/sodipodi-0.dtd"
   xmlns="http://www.w3.org/2000/svg"
   xmlns:svg="http://www.w3.org/2000/svg"><sodipodi:namedview
     id="namedview1"
     pagecolor="#ffffff"
     bordercolor="#000000"
     borderopacity="0.25"
     inkscape:showpageshadow="2"
     inkscape:pageopacity="0.0"
     inkscape:pagecheckerboard="0"
     inkscape:deskcolor="#d1d1d1"
     inkscape:document-units="mm"
     inkscape:zoom="0.2525697"
     inkscape:cx="1706.4596"
     inkscape:cy="281.11052"
     inkscape:window-width="1920"
     inkscape:window-height="1061"
     inkscape:window-x="1920"
     inkscape:window-y="0"
     inkscape:window-maximized="1"
     inkscape:current-layer="svg1" /><defs
     id="defs1"><inkscape:path-effect
       effect="fillet_chamfer"
       id="path-effect1"
       is_visible="true"
       lpeversion="1"
       nodesatellites_param="F,0,0,1,0,0,0,1 @ F,0,0,1,0,0,0,1 @ F,0,0,1,0,0,0,1 @ F,0,0,1,0,0,0,1 @ F,0,0,1,0,0,0,1 @ F,0,0,1,0,0,0,1 @ F,0,0,1,0,0,0,1 @ F,0,0,1,0,0,0,1 @ F,0,0,1,0,0,0,1 @ F,0,0,1,0,0,0,1 | F,0,0,1,0,0,0,1 @ F,0,0,1,0,0,0,1 @ F,0,0,1,0,0,0,1 @ F,0,0,1,0,0,0,1 @ F,0,0,1,0,0,0,1 @ F,0,0,1,0,0,0,1 @ F,0,0,1,0,0,0,1 @ F,0,0,1,0,0,0,1 @ F,0,0,1,0,0,0,1 @ F,0,0,1,0,0,0,1 @ F,0,0,1,0,0,0,1 @ F,0,0,1,0,0,0,1 @ F,0,0,1,0,0,0,1 @ F,0,0,1,0,0,0,1 @ F,0,0,1,0,0,0,1 @ F,0,0,1,0,0,0,1 @ F,0,0,1,0,0,0,1 @ F,0,0,1,0,0,0,1 @ F,0,0,1,0,0,0,1 @ F,0,0,1,0,0,0,1 @ F,0,0,1,0,0,0,1 @ F,0,0,1,0,0,0,1 @ F,0,0,1,0,0,0,1 @ F,0,0,1,0,0,0,1 @ F,0,0,1,0,0,0,1 @ F,0,0,1,0,0,0,1 @ F,0,0,1,0,0,0,1 @ F,0,0,1,0,0,0,1 @ F,0,0,1,0,0,0,1 @ F,0,0,1,0,0,0,1 @ F,0,0,1,0,0,0,1 | F,0,0,1,0,0,0,1 @ F,0,0,1,0,0,0,1 @ F,0,0,1,0,0,0,1 @ F,0,0,1,0,0,0,1 @ F,0,0,1,0,0,0,1 @ F,0,0,1,0,0,0,1 @ F,0,0,1,0,0,0,1 @ F,0,0,1,0,0,0,1 | F,0,0,1,0,0,0,1 @ F,0,0,1,0,0,0,1 @ F,0,0,1,0,0,0,1 @ F,0,0,1,0,0,0,1 @ F,0,0,1,0,0,0,1 @ F,0,0,1,0,0,0,1 @ F,0,0,1,0,0,0,1 @ F,0,0,1,0,0,0,1 @ F,0,0,1,0,0,0,1 @ F,0,0,1,0,0,0,1 @ F,0,0,1,0,0,0,1 @ F,0,0,1,0,0,0,1 @ F,0,0,1,0,0,0,1 @ F,0,0,1,0,0,0,1 @ F,0,0,1,0,0,0,1 | F,0,0,1,0,0,0,1 @ F,0,0,1,0,0,0,1 @ F,0,0,1,0,0,0,1 @ F,0,0,1,0,0,0,1 @ F,0,0,1,0,0,0,1 @ F,0,0,1,0,0,0,1 @ F,0,0,1,0,0,0,1 @ F,0,0,1,0,0,0,1 @ F,0,0,1,0,0,0,1 @ F,0,0,1,0,0,0,1 @ F,0,0,1,0,0,0,1 @ F,0,0,1,0,0,0,1 @ F,0,0,1,0,0,0,1 @ F,0,0,1,0,0,0,1 @ F,0,0,1,0,0,0,1 @ F,0,0,1,0,0,0,1 @ F,0,0,1,0,0,0,1 @ F,0,0,1,0,0,0,1 @ F,0,0,1,0,0,0,1 @ F,0,0,1,0,0,0,1 @ F,0,0,1,0,0,0,1 | F,0,0,1,0,0,0,1 @ F,0,0,1,0,0,0,1 @ F,0,0,1,0,0,0,1 @ F,0,0,1,0,0,0,1 @ F,0,0,1,0,0,0,1 @ F,0,0,1,0,0,0,1 @ F,0,0,1,0,0,0,1"
       radius="0"
       unit="px"
       method="auto"
       mode="F"
       chamfer_steps="1"
       flexible="false"
       use_knot_distance="true"
       apply_no_radius="true"
       apply_with_radius="true"
       only_selected="false"
       hide_knots="false" /><inkscape:path-effect
       effect="fillet_chamfer"
       id="path-effect51"
       is_visible="true"
       lpeversion="1"
       nodesatellites_param="F,0,1,1,0,18.528449,0,1 @ F,0,1,1,0,18.528449,0,1 @ F,0,1,1,0,18.528449,0,1 @ F,0,0,1,0,0,0,1 @ F,0,1,1,0,18.528449,0,1 @ F,0,1,1,0,18.528449,0,1 | F,0,1,1,0,18.528449,0,1 @ F,0,1,1,0,18.528449,0,1 @ F,0,1,1,0,18.528449,0,1 @ F,0,1,1,0,18.528449,0,1 @ F,0,0,1,0,0,0,1 @ F,0,0,1,0,0,0,1 @ F,0,0,1,0,18.528449,0,1 @ F,0,1,1,0,18.528449,0,1 @ F,0,0,1,0,0,0,1 @ F,0,1,1,0,18.528449,0,1"
       radius="0"
       unit="px"
       method="auto"
       mode="F"
       chamfer_steps="1"
       flexible="false"
       use_knot_distance="true"
       apply_no_radius="true"
       apply_with_radius="true"
       only_selected="false"
       hide_knots="false" /><inkscape:path-effect
       effect="fillet_chamfer"
       id="path-effect49"
       is_visible="true"
       lpeversion="1"
       nodesatellites_param="F,0,1,1,0,11.286737,0,1 @ F,0,1,1,0,11.286737,0,1 @ F,0,0,1,0,11.286737,0,1 @ F,0,1,1,0,11.286737,0,1 @ F,0,1,1,0,11.286737,0,1 @ F,0,1,1,0,11.286737,0,1"
       radius="0"
       unit="px"
       method="auto"
       mode="F"
       chamfer_steps="1"
       flexible="false"
       use_knot_distance="true"
       apply_no_radius="true"
       apply_with_radius="true"
       only_selected="false"
       hide_knots="false" /><inkscape:path-effect
       effect="fillet_chamfer"
       id="path-effect48"
       is_visible="true"
       lpeversion="1"
       nodesatellites_param="F,0,1,1,0,10.646421,0,1 @ F,0,1,1,0,10.646421,0,1 @ F,0,1,1,0,10.646421,0,1 @ F,0,0,1,0,0,0,1 @ F,0,1,1,0,10.646421,0,1 @ F,0,1,1,0,10.646421,0,1 | F,0,1,1,0,10.646421,0,1 @ F,0,1,1,0,10.646421,0,1 @ F,0,1,1,0,10.646421,0,1 @ F,0,1,1,0,10.646421,0,1 @ F,0,1,1,0,10.646421,0,1 @ F,0,0,1,0,0,0,1 @ F,0,0,1,0,0,0,1 @ F,0,1,1,0,10.646421,0,1 @ F,0,1,1,0,10.646421,0,1 @ F,0,0,1,0,0,0,1"
       radius="0"
       unit="px"
       method="auto"
       mode="F"
       chamfer_steps="1"
       flexible="false"
       use_knot_distance="true"
       apply_no_radius="true"
       apply_with_radius="true"
       only_selected="false"
       hide_knots="false" /><inkscape:path-effect
       effect="fillet_chamfer"
       id="path-effect47"
       is_visible="true"
       lpeversion="1"
       nodesatellites_param="F,0,0,1,0,0,0,1 @ F,0,0,1,0,0,0,1 @ F,0,0,1,0,0,0,1 @ F,0,0,1,0,0,0,1 @ F,0,0,1,0,0,0,1 @ F,0,0,1,0,0,0,1 | F,0,0,1,0,0,0,1 @ F,0,0,1,0,0,0,1 @ F,0,0,1,0,0,0,1 @ F,0,0,1,0,0,0,1 @ F,0,0,1,0,0,0,1 @ F,0,0,1,0,0,0,1 @ F,0,0,1,0,0,0,1 @ F,0,0,1,0,0,0,1 @ F,0,0,1,0,0,0,1 @ F,0,0,1,0,0,0,1"
       radius="0"
       unit="px"
       method="auto"
       mode="F"
       chamfer_steps="1"
       flexible="false"
       use_knot_distance="true"
       apply_no_radius="true"
       apply_with_radius="true"
       only_selected="false"
       hide_knots="false" /><rect
       x="319.61227"
       y="432.74936"
       width="1156.8267"
       height="724.07733"
       id="rect44" /><rect
       x="372"
       y="408"
       width="1244"
       height="1244"
       id="rect43" /><rect
       x="136"
       y="248"
       width="1844"
       height="1508"
       id="rect41" /><rect
       x="324"
       y="464"
       width="1640"
       height="1052"
       id="rect40" /><rect
       x="22"
       y="224"
       width="1890"
       height="1592"
       id="rect39" /><rect
       x="1847.7532"
       y="1356.1478"
       width="62.037609"
       height="86.084297"
       id="rect38" /><rect
       x="1863.1202"
       y="1375.2145"
       width="49.089394"
       height="64.883369"
       id="rect37" /><inkscape:perspective
       sodipodi:type="inkscape:persp3d"
       inkscape:vp_x="0 : -149.00001 : 1"
       inkscape:vp_y="-999.99995 : -1.2246468e-13 : 0"
       inkscape:vp_z="511.99998 : -149.00001 : 1"
       inkscape:persp3d-origin="255.99999 : -234.33334 : 1"
       id="perspective12" /></defs><path
     style="fill:#dbce6b;fill-opacity:1"
     d="M 2.19385,133.92623 V 2.64278 h 26.6218 l 77.96561,84.43343 V 2.64278 h 26.62 v 131.28345 h -26.62 L 28.81565,49.49273 v 84.4335 z M 146.65811,69.59569 184.27496,2.64278 h 78.4073 l 19.97502,49.51609 h -28.57565 l -9.43931,-21.86749 h -45.63736 l -22.05319,38.76802 21.91291,38.24504 h 42.84801 l 7.68352,-16.08748 H 207.93234 V 63.56863 h 85.18644 l -35.11784,70.3576 h -74.70021 z m 159.88815,64.33054 V 1.47273 l 119.031,0.0495 v 27.82641 h -79.407 v 29.15163 l 76.08,-0.15895 v 27.61434 l -76.08,0.22909 v 20.17335 h 79.407 v 27.56813 z m 275.7385,0 V 1.52223 H 555.66295 L 477.69734,85.95566 V 1.52223 h -26.62 v 132.404 h 26.62 l 77.96561,-85.55405 v 85.55405 z m 28.78874,0 V 1.52223 l 118.9938,-0.2821 v 19.98993 l -79.50017,0.18848 v 24.51319 l 75.90984,-0.17996 V 65.7417 l -75.90984,0.17996 v 67.91094 z m 144.25457,-0.2326 0.35798,-132.4535 119.03061,0.0495 v 27.82641 h -79.4068 l 0.0974,29.15163 75.9829,-0.15895 V 85.95215 H 795.4315 v 20.17335 h 79.28516 v 27.56813 z m 203.17119,0 c -9.4032,0.0273 -18.55,-0.54119 -27.4404,-1.70541 -8.7193,-1.28371 -17.5242,-3.28118 -26.4145,-5.99238 V 99.39937 c 10.0871,3.77874 19.6613,6.48796 28.7226,8.12767 9.2323,1.52023 17.9516,2.26845 26.1581,2.24465 8.2065,-0.0239 14.7888,-0.87589 19.7468,-2.55627 5.1291,-1.79987 7.6936,-5.07981 7.6936,-9.8398 0,-3.451 -1.4532,-6.12428 -4.3597,-8.01986 -2.7355,-2.01506 -6.8387,-3.96665 -12.3097,-5.85478 -5.3,-1.88863 -11.8823,-4.30904 -19.7468,-7.26123 -8.7194,-3.1877 -16.242,-6.49789 -22.5678,-9.93053 -6.3258,-3.55166 -11.1984,-7.58353 -14.6178,-12.0956 -3.4193,-4.63109 -5.129,-10.27862 -5.129,-16.94262 0,-11.30498 5.129,-19.88785 15.3871,-25.7486 10.4291,-5.86123 25.7307,-8.82111 45.9049,-8.87962 9.5743,-0.0278 19.234,0.65822 28.9791,2.05795 9.91624,1.28025 19.31944,3.39498 28.20984,6.34419 l -12.8226,22.34966 c -8.2065,-2.4752 -15.81464,-4.23813 -22.82434,-5.2888 -6.8387,-1.05117 -12.9936,-1.56882 -18.4645,-1.55295 -15.2162,0.0442 -22.8243,4.05269 -22.8243,12.02569 0,2.85598 1.0258,5.23302 3.0775,7.13106 2.2225,1.77856 5.7274,3.61288 10.5145,5.503 4.9581,1.88962 11.6258,4.30978 20.0033,7.26047 8.8903,3.18722 16.75484,6.37742 23.59364,9.57058 6.8387,3.19316 12.1387,6.98579 15.9,11.37788 3.9323,4.39158 5.8984,9.97888 5.8984,16.76187 0,11.06699 -5.7274,20.06809 -17.1824,27.0033 -11.2838,6.93472 -28.97904,10.43704 -53.08554,10.50695 z m 97.49054,0.1228 V 1.47083 l 40.7759,-0.12284 v 50.60273 l 50.2647,-0.15138 V 1.19661 l 40.7757,-0.12284 v 132.34561 l -40.7757,0.12284 V 77.19343 l -50.2647,0.15138 v 56.34882 z"
     id="path1"
     sodipodi:nodetypes="ccccccccccccccccccccccccccccccccccccccccccccccccccccccccccccccccccccccccccccsccccscscccccscsccccsscccscscsccccccccccccc" /></svg>
