<?xml version="1.0" encoding="UTF-8" standalone="no"?>
<!-- Created with Inkscape (http://www.inkscape.org/) -->

<svg
   width="512mm"
   height="512mm"
   viewBox="0 0 512 512"
   version="1.1"
   id="svg1"
   inkscape:version="1.4.3 (0d15f75042, 2025-12-25)"
   sodipodi:docname="logo.svg"
   xmlns:inkscape="http://www.inkscape.org/namespaces/inkscape"
   xmlns:sodipodi="http://sodipodi.sourceforge.net/DTD/sodipodi-0.dtd"
   xmlns="http://www.w3.org/2000/svg"
   xmlns:svg="http://www.w3.org/2000/svg">
  <sodipodi:namedview
     id="namedview1"
     pagecolor="#ffffff"
     bordercolor="#000000"
     borderopacity="0.25"
     inkscape:showpageshadow="2"
     inkscape:pageopacity="0.0"
     inkscape:pagecheckerboard="0"
     inkscape:deskcolor="#d1d1d1"
     inkscape:document-units="mm"
     showguides="false"
     inkscape:lockguides="true"
     inkscape:zoom="0.1767767"
     inkscape:cx="-158.39192"
     inkscape:cy="712.76363"
     inkscape:window-width="1920"
     inkscape:window-height="1061"
     inkscape:window-x="1920"
     inkscape:window-y="0"
     inkscape:window-maximized="1"
     inkscape:current-layer="layer1" />
  <defs
     id="defs1">
    <inkscape:path-effect
       effect="fillet_chamfer"
       id="path-effect51"
       is_visible="true"
       lpeversion="1"
       nodesatellites_param="F,0,1,1,0,18.528449,0,1 @ F,0,1,1,0,18.528449,0,1 @ F,0,1,1,0,18.528449,0,1 @ F,0,0,1,0,0,0,1 @ F,0,1,1,0,18.528449,0,1 @ F,0,1,1,0,18.528449,0,1 | F,0,1,1,0,18.528449,0,1 @ F,0,1,1,0,18.528449,0,1 @ F,0,1,1,0,18.528449,0,1 @ F,0,1,1,0,18.528449,0,1 @ F,0,0,1,0,0,0,1 @ F,0,0,1,0,0,0,1 @ F,0,0,1,0,18.528449,0,1 @ F,0,1,1,0,18.528449,0,1 @ F,0,0,1,0,0,0,1 @ F,0,1,1,0,18.528449,0,1"
       radius="0"
       unit="px"
       method="auto"
       mode="F"
       chamfer_steps="1"
       flexible="false"
       use_knot_distance="true"
       apply_no_radius="true"
       apply_with_radius="true"
       only_selected="false"
       hide_knots="false" />
    <inkscape:path-effect
       effect="fillet_chamfer"
       id="path-effect49"
       is_visible="true"
       lpeversion="1"
       nodesatellites_param="F,0,1,1,0,11.286737,0,1 @ F,0,1,1,0,11.286737,0,1 @ F,0,0,1,0,11.286737,0,1 @ F,0,1,1,0,11.286737,0,1 @ F,0,1,1,0,11.286737,0,1 @ F,0,1,1,0,11.286737,0,1"
       radius="0"
       unit="px"
       method="auto"
       mode="F"
       chamfer_steps="1"
       flexible="false"
       use_knot_distance="true"
       apply_no_radius="true"
       apply_with_radius="true"
       only_selected="false"
       hide_knots="false" />
    <inkscape:path-effect
       effect="fillet_chamfer"
       id="path-effect48"
       is_visible="true"
       lpeversion="1"
       nodesatellites_param="F,0,1,1,0,10.646421,0,1 @ F,0,1,1,0,10.646421,0,1 @ F,0,1,1,0,10.646421,0,1 @ F,0,0,1,0,0,0,1 @ F,0,1,1,0,10.646421,0,1 @ F,0,1,1,0,10.646421,0,1 | F,0,1,1,0,10.646421,0,1 @ F,0,1,1,0,10.646421,0,1 @ F,0,1,1,0,10.646421,0,1 @ F,0,1,1,0,10.646421,0,1 @ F,0,1,1,0,10.646421,0,1 @ F,0,0,1,0,0,0,1 @ F,0,0,1,0,0,0,1 @ F,0,1,1,0,10.646421,0,1 @ F,0,1,1,0,10.646421,0,1 @ F,0,0,1,0,0,0,1"
       radius="0"
       unit="px"
       method="auto"
       mode="F"
       chamfer_steps="1"
       flexible="false"
       use_knot_distance="true"
       apply_no_radius="true"
       apply_with_radius="true"
       only_selected="false"
       hide_knots="false" />
    <inkscape:path-effect
       effect="fillet_chamfer"
       id="path-effect47"
       is_visible="true"
       lpeversion="1"
       nodesatellites_param="F,0,0,1,0,0,0,1 @ F,0,0,1,0,0,0,1 @ F,0,0,1,0,0,0,1 @ F,0,0,1,0,0,0,1 @ F,0,0,1,0,0,0,1 @ F,0,0,1,0,0,0,1 | F,0,0,1,0,0,0,1 @ F,0,0,1,0,0,0,1 @ F,0,0,1,0,0,0,1 @ F,0,0,1,0,0,0,1 @ F,0,0,1,0,0,0,1 @ F,0,0,1,0,0,0,1 @ F,0,0,1,0,0,0,1 @ F,0,0,1,0,0,0,1 @ F,0,0,1,0,0,0,1 @ F,0,0,1,0,0,0,1"
       radius="0"
       unit="px"
       method="auto"
       mode="F"
       chamfer_steps="1"
       flexible="false"
       use_knot_distance="true"
       apply_no_radius="true"
       apply_with_radius="true"
       only_selected="false"
       hide_knots="false" />
    <rect
       x="319.61226"
       y="432.74935"
       width="1156.8267"
       height="724.07734"
       id="rect44" />
    <rect
       x="372"
       y="408"
       width="1244"
       height="1244"
       id="rect43" />
    <rect
       x="136"
       y="248"
       width="1844"
       height="1508"
       id="rect41" />
    <rect
       x="324"
       y="464"
       width="1640"
       height="1052"
       id="rect40" />
    <rect
       x="22"
       y="224"
       width="1890"
       height="1592"
       id="rect39" />
    <rect
       x="1847.7532"
       y="1356.1478"
       width="62.03761"
       height="86.084299"
       id="rect38" />
    <rect
       x="1863.1203"
       y="1375.2145"
       width="49.089393"
       height="64.883372"
       id="rect37" />
    <inkscape:perspective
       sodipodi:type="inkscape:persp3d"
       inkscape:vp_x="0 : 256 : 1"
       inkscape:vp_y="-999.99997 : -1.2246468e-13 : 0"
       inkscape:vp_z="512 : 256 : 1"
       inkscape:persp3d-origin="256 : 170.66667 : 1"
       id="perspective12" />
  </defs>
  <g
     inkscape:label="Layer 1"
     inkscape:groupmode="layer"
     id="layer1">
    <path
       id="path18"
       style="fill:#dbce69;fill-opacity:1;stroke-width:0.264583"
       inkscape:transform-center-x="8.0513975e-06"
       inkscape:transform-center-y="12.378872"
       transform="matrix(1.0836974,0,0,1.1115274,-100.3374,-43.956424)"
       d="M 319.04172,488.45876 143.80819,387.28764 a 19.549203,19.549203 59.999999 0 1 -9.7746,-16.93011 l -1e-5,-202.34225 a 19.549201,19.549201 120 0 1 9.7746,-16.93011 L 319.04171,49.914045 a 19.549202,19.549202 180 0 1 19.5492,-1e-6 L 513.82444,151.08516 a 19.549202,19.549202 59.999998 0 1 9.7746,16.93011 l 1e-5,202.34225 a 19.549202,19.549202 120 0 1 -9.7746,16.93011 L 338.59092,488.45876 a 19.549201,19.549201 180 0 1 -19.5492,0 z"
       inkscape:path-effect="#path-effect49"
       inkscape:original-d="m 328.81632,494.10213 -194.78273,-112.45786 -1e-5,-224.91573 194.78273,-112.457864 194.78273,112.457854 1e-5,224.91573 z"
       sodipodi:insensitive="true" />
    <path
       d="M 113.48995,333.4479 V 177.05863 a 18.528449,18.528449 135 0 1 18.52845,-18.52845 l 6.02145,0 a 18.528449,18.528449 45 0 1 18.52845,18.52845 v 136.9871 h 60.85492 a 18.528449,18.528449 45 0 1 18.52845,18.52845 v 0.87372 a 18.528449,18.528449 135 0 1 -18.52845,18.52845 l -85.40482,0 A 18.528449,18.528449 45 0 1 113.48995,333.4479 Z m 159.30871,0 V 177.05863 a 18.528449,18.528449 135 0 1 18.52845,-18.52845 h 88.65602 a 18.528449,18.528449 45 0 1 18.52845,18.52845 v 0.0609 A 18.528449,18.528449 135 0 1 379.98313,195.648 h -65.46079 v 45.51675 h 65.46079 a 18.528449,18.528449 45 0 1 18.52845,18.52845 v 0.0609 a 18.528449,18.528449 135 0 1 -18.52845,18.52845 h -65.46079 v 55.16533 a 18.528449,18.528449 135 0 1 -18.52845,18.52845 h -4.66678 A 18.528449,18.528449 45 0 1 272.79866,333.4479 Z"
       id="text51"
       style="font-weight:800;font-size:270.933px;line-height:0;font-family:'Noto Sans Mono';-inkscape-font-specification:'Noto Sans Mono Ultra-Bold';fill:#ffffff;stroke-width:0.264583"
       aria-label="LF"
       inkscape:path-effect="#path-effect51"
       inkscape:original-d="M 113.48995,351.97635 V 158.53018 h 43.07835 v 155.51555 h 79.38337 v 37.93062 z m 159.30871,0 V 158.53018 H 398.51158 V 195.648 h -83.98924 v 45.51675 h 83.98924 v 37.11782 h -83.98924 v 73.69378 z"
       sodipodi:nodetypes="cccccccccccccccccc" />
  </g>
</svg>
